<svg xmlns="http://www.w3.org/2000/svg" xmlns:xlink="http://www.w3.org/1999/xlink" contentStyleType="text/css" data-diagram-type="STATE" height="397px" preserveAspectRatio="none" style="width:1597px;height:397px;background:#FFFFFF;" version="1.1" viewBox="0 0 1597 397" width="1597px" zoomAndPan="magnify"><defs/><g><ellipse cx="737.75" cy="16" fill="#222222" rx="10" ry="10" style="stroke:#222222;stroke-width:1;"/><g id="Home"><rect fill="#F1F1F1" height="50" rx="12.5" ry="12.5" style="stroke:#181818;stroke-width:0.5;" width="61.3438" x="707.08" y="87"/><line style="stroke:#181818;stroke-width:0.5;" x1="707.08" x2="768.4238" y1="113.2969" y2="113.2969"/><text fill="#000000" font-family="sans-serif" font-size="14" lengthAdjust="spacing" textLength="41.3438" x="717.08" y="104.9951">Home</text></g><g id="Login"><rect fill="#F1F1F1" height="50" rx="12.5" ry="12.5" style="stroke:#181818;stroke-width:0.5;" width="58.0146" x="339.74" y="214"/><line style="stroke:#181818;stroke-width:0.5;" x1="339.74" x2="397.7546" y1="240.2969" y2="240.2969"/><text fill="#000000" font-family="sans-serif" font-size="14" lengthAdjust="spacing" textLength="38.0146" x="349.74" y="231.9951">Login</text></g><g id="Registro"><rect fill="#F1F1F1" height="50" rx="12.5" ry="12.5" style="stroke:#181818;stroke-width:0.5;" width="78.2217" x="992.64" y="214"/><line style="stroke:#181818;stroke-width:0.5;" x1="992.64" x2="1070.8617" y1="240.2969" y2="240.2969"/><text fill="#000000" font-family="sans-serif" font-size="14" lengthAdjust="spacing" textLength="58.2217" x="1002.64" y="231.9951">Registro</text></g><g id="AlumnoProfile"><rect fill="#F1F1F1" height="50" rx="12.5" ry="12.5" style="stroke:#181818;stroke-width:0.5;" width="117.501" x="7" y="341"/><line style="stroke:#181818;stroke-width:0.5;" x1="7" x2="124.501" y1="367.2969" y2="367.2969"/><text fill="#000000" font-family="sans-serif" font-size="14" lengthAdjust="spacing" textLength="97.501" x="17" y="358.9951">AlumnoProfile</text></g><g id="OrientadorProfile"><rect fill="#F1F1F1" height="50" rx="12.5" ry="12.5" style="stroke:#181818;stroke-width:0.5;" width="139.5127" x="707.99" y="341"/><line style="stroke:#181818;stroke-width:0.5;" x1="707.99" x2="847.5027" y1="367.2969" y2="367.2969"/><text fill="#000000" font-family="sans-serif" font-size="14" lengthAdjust="spacing" textLength="119.5127" x="717.99" y="358.9951">OrientadorProfile</text></g><g id="AdminProfile"><rect fill="#F1F1F1" height="50" rx="12.5" ry="12.5" style="stroke:#181818;stroke-width:0.5;" width="108.9492" x="327.28" y="341"/><line style="stroke:#181818;stroke-width:0.5;" x1="327.28" x2="436.2292" y1="367.2969" y2="367.2969"/><text fill="#000000" font-family="sans-serif" font-size="14" lengthAdjust="spacing" textLength="88.9492" x="337.28" y="358.9951">AdminProfile</text></g><g id="elem_GMN2"><path d="M1248.62,91.87 L1248.62,132.1356 L1590.8812,132.1356 L1590.8812,101.87 L1580.8812,91.87 L1248.62,91.87 " fill="#FEFFDD" style="stroke:#181818;stroke-width:0.5;"/><path d="M1580.8812,91.87 L1580.8812,101.87 L1590.8812,101.87 L1580.8812,91.87 " fill="#FEFFDD" style="stroke:#181818;stroke-width:1;"/><text fill="#000000" font-family="sans-serif" font-size="13" lengthAdjust="spacing" textLength="187.186" x="1254.62" y="108.9369">P&#225;gina principal del sistema.</text><text fill="#000000" font-family="sans-serif" font-size="13" lengthAdjust="spacing" textLength="321.2612" x="1254.62" y="124.0697">Los usuarios pueden navegar al Login o Registro.</text></g><g id="elem_GMN5"><path d="M432.35,226.43 L432.35,235 L398.18,239 L432.35,243 L432.35,251.5628 A0,0 0 0 0 432.35,251.5628 L791.1469,251.5628 A0,0 0 0 0 791.1469,251.5628 L791.1469,236.43 L781.1469,226.43 L432.35,226.43 A0,0 0 0 0 432.35,226.43 " fill="#FEFFDD" style="stroke:#181818;stroke-width:0.5;"/><path d="M781.1469,226.43 L781.1469,236.43 L791.1469,236.43 L781.1469,226.43 " fill="#FEFFDD" style="stroke:#181818;stroke-width:0.5;"/><text fill="#000000" font-family="sans-serif" font-size="13" lengthAdjust="spacing" textLength="337.7969" x="438.35" y="243.4969">Login de usuarios tipo: alumno, orientador y admin.</text></g><g id="elem_GMN8"><path d="M1105.52,226.43 L1105.52,235 L1071.16,239 L1105.52,243 L1105.52,251.5628 A0,0 0 0 0 1105.52,251.5628 L1345.9839,251.5628 A0,0 0 0 0 1345.9839,251.5628 L1345.9839,236.43 L1335.9839,226.43 L1105.52,226.43 A0,0 0 0 0 1105.52,226.43 " fill="#FEFFDD" style="stroke:#181818;stroke-width:0.5;"/><path d="M1335.9839,226.43 L1335.9839,236.43 L1345.9839,236.43 L1335.9839,226.43 " fill="#FEFFDD" style="stroke:#181818;stroke-width:0.5;"/><text fill="#000000" font-family="sans-serif" font-size="13" lengthAdjust="spacing" textLength="219.4639" x="1111.52" y="243.4969">Registro de usuarios tipo alumno.</text></g><g id="elem_GMN11"><path d="M803.8,99.43 L803.8,108 L768.71,112 L803.8,116 L803.8,124.5628 A0,0 0 0 0 803.8,124.5628 L1213.7019,124.5628 A0,0 0 0 0 1213.7019,124.5628 L1213.7019,109.43 L1203.7019,99.43 L803.8,99.43 A0,0 0 0 0 803.8,99.43 " fill="#FEFFDD" style="stroke:#181818;stroke-width:0.5;"/><path d="M1203.7019,99.43 L1203.7019,109.43 L1213.7019,109.43 L1203.7019,99.43 " fill="#FEFFDD" style="stroke:#181818;stroke-width:0.5;"/><text fill="#000000" font-family="sans-serif" font-size="13" lengthAdjust="spacing" textLength="388.9019" x="809.8" y="116.4969">El usuario vuelve a la p&#225;gina principal despu&#233;s del registro.</text></g><g id="elem_GMN14"><path d="M159.17,353.43 L159.17,362 L124.93,366 L159.17,370 L159.17,378.5628 A0,0 0 0 0 159.17,378.5628 L286.3409,378.5628 A0,0 0 0 0 286.3409,378.5628 L286.3409,363.43 L276.3409,353.43 L159.17,353.43 A0,0 0 0 0 159.17,353.43 " fill="#FEFFDD" style="stroke:#181818;stroke-width:0.5;"/><path d="M276.3409,353.43 L276.3409,363.43 L286.3409,363.43 L276.3409,353.43 " fill="#FEFFDD" style="stroke:#181818;stroke-width:0.5;"/><text fill="#000000" font-family="sans-serif" font-size="13" lengthAdjust="spacing" textLength="106.1709" x="165.17" y="370.4969">Perfil de alumno</text></g><g id="elem_GMN17"><path d="M882.62,353.43 L882.62,362 L847.98,366 L882.62,370 L882.62,378.5628 A0,0 0 0 0 882.62,378.5628 L1028.8783,378.5628 A0,0 0 0 0 1028.8783,378.5628 L1028.8783,363.43 L1018.8783,353.43 L882.62,353.43 A0,0 0 0 0 882.62,353.43 " fill="#FEFFDD" style="stroke:#181818;stroke-width:0.5;"/><path d="M1018.8783,353.43 L1018.8783,363.43 L1028.8783,363.43 L1018.8783,353.43 " fill="#FEFFDD" style="stroke:#181818;stroke-width:0.5;"/><text fill="#000000" font-family="sans-serif" font-size="13" lengthAdjust="spacing" textLength="125.2583" x="888.62" y="370.4969">Perfil de orientador</text></g><g id="elem_GMN20"><path d="M471.14,353.43 L471.14,362 L436.46,366 L471.14,370 L471.14,378.5628 A0,0 0 0 0 471.14,378.5628 L590.37,378.5628 A0,0 0 0 0 590.37,378.5628 L590.37,363.43 L580.37,353.43 L471.14,353.43 A0,0 0 0 0 471.14,353.43 " fill="#FEFFDD" style="stroke:#181818;stroke-width:0.5;"/><path d="M580.37,353.43 L580.37,363.43 L590.37,363.43 L580.37,353.43 " fill="#FEFFDD" style="stroke:#181818;stroke-width:0.5;"/><text fill="#000000" font-family="sans-serif" font-size="13" lengthAdjust="spacing" textLength="98.23" x="477.14" y="370.4969">Perfil de admin</text></g><!--link *start* to Home--><g id="link_*start*_Home"><path d="M737.75,26.36 C737.75,40.29 737.75,60.95 737.75,80.65 " fill="none" id="*start*-to-Home" style="stroke:#181818;stroke-width:1;"/><polygon fill="#181818" points="737.75,86.65,741.75,77.65,737.75,81.65,733.75,77.65,737.75,86.65" style="stroke:#181818;stroke-width:1;"/></g><!--link Home to Login--><g id="link_Home_Login"><path d="M706.83,120.7 C648.56,135.64 519,170.91 414.75,214 C409.26,216.27 408.8987,216.271 403.4387,219.021 " fill="none" id="Home-to-Login" style="stroke:#181818;stroke-width:1;"/><polygon fill="#181818" points="398.08,221.72,407.9173,221.244,402.5456,219.4709,404.3187,214.0991,398.08,221.72" style="stroke:#181818;stroke-width:1;"/><text fill="#000000" font-family="sans-serif" font-size="13" lengthAdjust="spacing" textLength="60.709" x="538.75" y="180.0669">Ir a Login</text></g><!--link Home to Registro--><g id="link_Home_Registro"><path d="M768.82,129.04 C774.7,131.85 780.87,134.62 786.75,137 C827.02,153.26 839.36,151.03 879.75,167 C896.2,173.51 899.73,176.49 915.75,184 C941.19,195.93 964.379,206.7211 986.819,217.1511 " fill="none" id="Home-to-Registro" style="stroke:#181818;stroke-width:1;"/><polygon fill="#181818" points="992.26,219.68,985.7845,212.2592,987.7258,217.5725,982.4125,219.5139,992.26,219.68" style="stroke:#181818;stroke-width:1;"/><text fill="#000000" font-family="sans-serif" font-size="13" lengthAdjust="spacing" textLength="79.4727" x="916.75" y="180.0669">Ir a Registro</text></g><!--link Registro to Home--><g id="link_Registro_Home"><path d="M1027.49,213.8 C1023.39,197.98 1015.54,178.22 1000.75,167 C924.25,108.94 878.58,165.14 786.75,137 C780.77,135.17 780.0732,135.1925 774.2332,132.5125 " fill="none" id="Registro-to-Home" style="stroke:#181818;stroke-width:1;"/><polygon fill="#181818" points="768.78,130.01,775.2915,137.3992,773.3243,132.0954,778.6281,130.1283,768.78,130.01" style="stroke:#181818;stroke-width:1;"/><text fill="#000000" font-family="sans-serif" font-size="13" lengthAdjust="spacing" textLength="135.0908" x="1015.75" y="180.0669">Registro completado</text></g><!--link Login to AlumnoProfile--><g id="link_Login_AlumnoProfile"><path d="M339.44,252.67 C330.85,256.36 321.43,260.36 312.75,264 C248.65,290.84 180.4312,318.6476 130.3112,338.9476 " fill="none" id="Login-to-AlumnoProfile" style="stroke:#181818;stroke-width:1;"/><polygon fill="#181818" points="124.75,341.2,134.5934,341.5288,129.3843,339.323,131.5901,334.1139,124.75,341.2" style="stroke:#181818;stroke-width:1;"/><text fill="#000000" font-family="sans-serif" font-size="13" lengthAdjust="spacing" textLength="78.7109" x="239.75" y="307.0669">Rol: Alumno</text></g><!--link Login to OrientadorProfile--><g id="link_Login_OrientadorProfile"><path d="M398.02,256.43 C403.49,259.16 409.22,261.82 414.75,264 C513.77,303.11 627.7486,331.9829 701.9086,348.8029 " fill="none" id="Login-to-OrientadorProfile" style="stroke:#181818;stroke-width:1;"/><polygon fill="#181818" points="707.76,350.13,699.8677,344.2384,702.8838,349.0241,698.0982,352.0402,707.76,350.13" style="stroke:#181818;stroke-width:1;"/><text fill="#000000" font-family="sans-serif" font-size="13" lengthAdjust="spacing" textLength="99.1504" x="553.75" y="307.0669">Rol: Orientador</text></g><!--link Login to AdminProfile--><g id="link_Login_AdminProfile"><path d="M371.29,264.4 C373.58,286.42 376.3088,312.6922 378.5988,334.6922 " fill="none" id="Login-to-AdminProfile" style="stroke:#181818;stroke-width:1;"/><polygon fill="#181818" points="379.22,340.66,382.2667,331.2942,378.7023,335.6869,374.3097,332.1225,379.22,340.66" style="stroke:#181818;stroke-width:1;"/><text fill="#000000" font-family="sans-serif" font-size="13" lengthAdjust="spacing" textLength="70.77" x="377.75" y="307.0669">Rol: Admin</text></g><!--link AlumnoProfile to Home--><g id="link_AlumnoProfile_Home"><path d="M67.97,340.74 C72.31,307.53 84.88,248.14 120.75,214 C206.45,132.43 587.622,116.6949 700.672,113.7749 " fill="none" id="AlumnoProfile-to-Home" style="stroke:#181818;stroke-width:1;"/><polygon fill="#181818" points="706.67,113.62,697.5697,109.8537,701.6717,113.7491,697.7763,117.8511,706.67,113.62" style="stroke:#181818;stroke-width:1;"/><text fill="#000000" font-family="sans-serif" font-size="13" lengthAdjust="spacing" textLength="86.5566" x="121.75" y="243.5669">Cerrar sesi&#243;n</text></g><!--link OrientadorProfile to Home--><g id="link_OrientadorProfile_Home"><path d="M790.3,340.54 C804.08,310.35 822.55,257.63 808.75,214 C799.44,184.57 782.1095,160.7892 765.2495,141.6792 " fill="none" id="OrientadorProfile-to-Home" style="stroke:#181818;stroke-width:1;"/><polygon fill="#181818" points="761.28,137.18,764.2348,146.5752,764.5879,140.9294,770.2337,141.2825,761.28,137.18" style="stroke:#181818;stroke-width:1;"/><text fill="#000000" font-family="sans-serif" font-size="13" lengthAdjust="spacing" textLength="86.5566" x="814.75" y="243.5669">Cerrar sesi&#243;n</text></g><!--link AdminProfile to Home--><g id="link_AdminProfile_Home"><path d="M326.94,347.38 C289.11,334.7 244.59,318.56 238.75,311 C212.36,276.84 206.39,247.39 233.75,214 C294.34,140.06 600.537,119.4306 700.747,114.5706 " fill="none" id="AdminProfile-to-Home" style="stroke:#181818;stroke-width:1;"/><polygon fill="#181818" points="706.74,114.28,697.5568,110.7207,701.7459,114.5222,697.9443,118.7113,706.74,114.28" style="stroke:#181818;stroke-width:1;"/><text fill="#000000" font-family="sans-serif" font-size="13" lengthAdjust="spacing" textLength="86.5566" x="234.75" y="243.5669">Cerrar sesi&#243;n</text></g><!--link Home to GMN2--><g id="link_Home_GMN2"><path d="M760.05,86.57 C771.87,75.02 787.43,62.6 804.25,56.5 C889.7,25.53 1123.14,44.6 1213.25,56.5 C1263.67,63.16 1319.27,78.58 1360.06,91.49 " fill="none" id="Home-GMN2" style="stroke:#181818;stroke-width:1;stroke-dasharray:7.0,7.0;"/></g><!--SRC=[TP9DQiCm48NtEiMiIvC3P54efT12eA7RqeM89gv0reYHRUXnkkowH_35Abd-LPITD7wZxyqRVznzmcxt02zKex3K8B2klXgWIoh1gV-fj9NWMDkpTjA0GWDU-mPhkHTm90-jRoNhS70jAhHWPOULP0ZY8uLk87Z7AhGmxGLQ1H4aH0GCy2Gwm6jeIPVCIggDEeKBiD6E3e7JrfRkWLYZRQGYXc-GgjQsY9kyJCJfda7dyjAGeqVocZ9hfrG3PQwTgNO6eyDYrizcUXww5as7mPm9qHTMu5tR__fX5ro8DYKLBJmE3azC5sq6BsGEOp7pi566nIE7Gnmv3Lby_MrEF2Ci7pBALSUQj2omF4jSQJvAhEMJh7IRGGRjyl8sczN2df0v_ByUlUx_hBYUyhPsu_6cx1y0]--></g></svg>