<svg xmlns="http://www.w3.org/2000/svg" xmlns:xlink="http://www.w3.org/1999/xlink" contentStyleType="text/css" data-diagram-type="DESCRIPTION" height="185px" preserveAspectRatio="none" style="width:1210px;height:185px;background:#FFFFFF;" version="1.1" viewBox="0 0 1210 185" width="1210px" zoomAndPan="magnify"><defs/><g><!--entity Alumno--><g id="elem_Alumno"><ellipse cx="244.7366" cy="14" fill="#F1F1F1" rx="8" ry="8" style="stroke:#181818;stroke-width:0.5;"/><path d="M244.7366,22 L244.7366,49 M231.7366,30 L257.7366,30 M244.7366,49 L231.7366,64 M244.7366,49 L257.7366,64 " fill="none" style="stroke:#181818;stroke-width:0.5;"/><text fill="#000000" font-family="sans-serif" font-size="14" lengthAdjust="spacing" textLength="94.4932" x="197.49" y="78.4951">User: Alumno</text></g><!--entity Orientador--><g id="elem_Orientador"><ellipse cx="390.7424" cy="14" fill="#F1F1F1" rx="8" ry="8" style="stroke:#181818;stroke-width:0.5;"/><path d="M390.7424,22 L390.7424,49 M377.7424,30 L403.7424,30 M390.7424,49 L377.7424,64 M390.7424,49 L403.7424,64 " fill="none" style="stroke:#181818;stroke-width:0.5;"/><text fill="#000000" font-family="sans-serif" font-size="14" lengthAdjust="spacing" textLength="116.5049" x="332.49" y="78.4951">User: Orientador</text></g><!--entity Admin--><g id="elem_Admin"><ellipse cx="924.7407" cy="14" fill="#F1F1F1" rx="8" ry="8" style="stroke:#181818;stroke-width:0.5;"/><path d="M924.7407,22 L924.7407,49 M911.7407,30 L937.7407,30 M924.7407,49 L911.7407,64 M924.7407,49 L937.7407,64 " fill="none" style="stroke:#181818;stroke-width:0.5;"/><text fill="#000000" font-family="sans-serif" font-size="14" lengthAdjust="spacing" textLength="85.9414" x="881.77" y="78.4951">User: Admin</text></g><g id="elem_CrearCita"><ellipse cx="402.7406" cy="160.6401" fill="#F1F1F1" rx="62.3006" ry="14.8601" style="stroke:#181818;stroke-width:0.5;"/><text fill="#000000" font-family="sans-serif" font-size="14" lengthAdjust="spacing" textLength="70.6631" x="364.4091" y="164.3877">Crear Cita</text></g><g id="elem_VerCitas"><ellipse cx="557.7363" cy="160.6434" fill="#F1F1F1" rx="57.3963" ry="14.7534" style="stroke:#181818;stroke-width:0.5;"/><text fill="#000000" font-family="sans-serif" font-size="14" lengthAdjust="spacing" textLength="63.4238" x="523.0244" y="164.391">Ver Citas</text></g><g id="elem_EditarCitas"><ellipse cx="71.7391" cy="160.6378" fill="#F1F1F1" rx="65.7391" ry="15.5478" style="stroke:#181818;stroke-width:0.5;"/><text fill="#000000" font-family="sans-serif" font-size="14" lengthAdjust="spacing" textLength="80.9238" x="28.2772" y="164.3854">Editar Citas</text></g><g id="elem_BorrarCitas"><ellipse cx="238.7361" cy="160.6372" fill="#F1F1F1" rx="66.6361" ry="15.7272" style="stroke:#181818;stroke-width:0.5;"/><text fill="#000000" font-family="sans-serif" font-size="14" lengthAdjust="spacing" textLength="83.4941" x="193.989" y="164.3848">Borrar Citas</text></g><g id="elem_CrearOrientador"><ellipse cx="729.741" cy="160.6362" fill="#F1F1F1" rx="79.931" ry="18.3862" style="stroke:#181818;stroke-width:0.5;"/><text fill="#000000" font-family="sans-serif" font-size="14" lengthAdjust="spacing" textLength="118.3574" x="668.87" y="164.0244">Crear Orientador</text></g><g id="elem_VerOrientadores"><ellipse cx="924.7392" cy="160.6398" fill="#F1F1F1" rx="80.4992" ry="18.4998" style="stroke:#181818;stroke-width:0.5;"/><text fill="#000000" font-family="sans-serif" font-size="14" lengthAdjust="spacing" textLength="119.7314" x="863.3941" y="163.9649">Ver Orientadores</text></g><g id="elem_BorrarOrientador"><ellipse cx="1122.7433" cy="160.6387" fill="#F1F1F1" rx="82.2433" ry="18.8487" style="stroke:#181818;stroke-width:0.5;"/><text fill="#000000" font-family="sans-serif" font-size="14" lengthAdjust="spacing" textLength="123.8945" x="1059.9431" y="163.7699">Borrar Orientador</text></g><!--link Alumno to CrearCita--><g id="link_Alumno_CrearCita"><path d="M292.14,79.15 C323.05,101.64 356.8292,126.2288 379.2892,142.5788 " fill="none" id="Alumno-to-CrearCita" style="stroke:#181818;stroke-width:1;"/><polygon fill="#181818" points="384.14,146.11,379.2179,137.5793,380.0976,143.1673,374.5096,144.0471,384.14,146.11" style="stroke:#181818;stroke-width:1;"/></g><!--link Alumno to VerCitas--><g id="link_Alumno_VerCitas"><path d="M292.39,71.37 C299.77,75.09 307.39,78.69 314.74,81.79 C384.75,111.31 464.2202,134.6358 512.8802,147.8658 " fill="none" id="Alumno-to-VerCitas" style="stroke:#181818;stroke-width:1;"/><polygon fill="#181818" points="518.67,149.44,511.0347,143.2189,513.8452,148.1282,508.9358,150.9386,518.67,149.44" style="stroke:#181818;stroke-width:1;"/></g><!--link Alumno to EditarCitas--><g id="link_Alumno_EditarCitas"><path d="M197.01,76.37 C162.8,99.11 123.3959,125.2972 97.6859,142.3972 " fill="none" id="Alumno-to-EditarCitas" style="stroke:#181818;stroke-width:1;"/><polygon fill="#181818" points="92.69,145.72,102.399,144.0664,96.8532,142.951,97.9686,137.4052,92.69,145.72" style="stroke:#181818;stroke-width:1;"/></g><!--link Alumno to BorrarCitas--><g id="link_Alumno_BorrarCitas"><path d="M242.79,81.98 C241.68,103.23 240.6604,122.688 239.8404,138.518 " fill="none" id="Alumno-to-BorrarCitas" style="stroke:#181818;stroke-width:1;"/><polygon fill="#181818" points="239.53,144.51,243.9902,135.729,239.7887,139.5167,236.0009,135.3151,239.53,144.51" style="stroke:#181818;stroke-width:1;"/></g><!--link Orientador to CrearCita--><g id="link_Orientador_CrearCita"><path d="M394.64,81.98 C396.89,103.62 398.9886,123.6623 400.6286,139.4123 " fill="none" id="Orientador-to-CrearCita" style="stroke:#181818;stroke-width:1;"/><polygon fill="#181818" points="401.25,145.38,404.2964,136.0141,400.7322,140.4069,396.3394,136.8427,401.25,145.38" style="stroke:#181818;stroke-width:1;"/></g><!--link Orientador to VerCitas--><g id="link_Orientador_VerCitas"><path d="M444.96,81.98 C477.15,104.15 511.0485,127.4868 533.7285,143.1068 " fill="none" id="Orientador-to-VerCitas" style="stroke:#181818;stroke-width:1;"/><polygon fill="#181818" points="538.67,146.51,533.5266,138.1108,534.5521,143.674,528.989,144.6994,538.67,146.51" style="stroke:#181818;stroke-width:1;"/></g><!--link Orientador to EditarCitas--><g id="link_Orientador_EditarCitas"><path d="M332.24,72.42 C324.72,75.71 317.09,78.92 309.74,81.79 C241.32,108.57 165.2727,132.2151 117.5627,146.3551 " fill="none" id="Orientador-to-EditarCitas" style="stroke:#181818;stroke-width:1;"/><polygon fill="#181818" points="111.81,148.06,121.5756,149.3377,116.6039,146.6392,119.3024,141.6675,111.81,148.06" style="stroke:#181818;stroke-width:1;"/></g><!--link Orientador to BorrarCitas--><g id="link_Orientador_BorrarCitas"><path d="M341.39,81.98 C312.96,103.49 283.614,125.6888 262.754,141.4788 " fill="none" id="Orientador-to-BorrarCitas" style="stroke:#181818;stroke-width:1;"/><polygon fill="#181818" points="257.97,145.1,267.5602,142.8575,261.9567,142.0823,262.7318,136.4788,257.97,145.1" style="stroke:#181818;stroke-width:1;"/></g><!--link Admin to CrearOrientador--><g id="link_Admin_CrearOrientador"><path d="M881.46,70.17 C843.76,92.4 795.3682,120.9321 762.9982,140.0221 " fill="none" id="Admin-to-CrearOrientador" style="stroke:#181818;stroke-width:1;"/><polygon fill="#181818" points="757.83,143.07,767.6142,141.9436,762.1368,140.5301,763.5504,135.0527,757.83,143.07" style="stroke:#181818;stroke-width:1;"/></g><!--link Admin to VerOrientadores--><g id="link_Admin_VerOrientadores"><path d="M924.74,81.98 C924.74,102.05 924.74,119.87 924.74,135.79 " fill="none" id="Admin-to-VerOrientadores" style="stroke:#181818;stroke-width:1;"/><polygon fill="#181818" points="924.74,141.79,928.74,132.79,924.74,136.79,920.74,132.79,924.74,141.79" style="stroke:#181818;stroke-width:1;"/></g><!--link Admin to BorrarOrientador--><g id="link_Admin_BorrarOrientador"><path d="M968.19,69.88 C1006.21,91.96 1055.2121,120.4157 1088.2921,139.6357 " fill="none" id="Admin-to-BorrarOrientador" style="stroke:#181818;stroke-width:1;"/><polygon fill="#181818" points="1093.48,142.65,1087.7077,134.67,1089.1568,140.1381,1083.6887,141.5872,1093.48,142.65" style="stroke:#181818;stroke-width:1;"/></g><!--SRC=[PL4x3eCm3DrpYeYT2tIeH57dJkrkWGUaaaXEk7_1HjXnjxoFRByNc6gcsBqBqYqEtsrDkOjGpcS0AxzemLHXpiGMXQrjcDSboP3Z5S9MS8A2iHi9WUAuL62PuO7KyK7H2njsn43rvxnZQn72kHwPg7498Iv_Zal5f8dMdAOyNXTQxky4DrnOCpr8px7lxwOEGruL6CvcDdGJKdUusKwuvZlUxd1IiuU_M5UOQAhuabJnVVm0]--></g></svg>